<svg xmlns="http://www.w3.org/2000/svg" viewBox="0 0 960 520" font-family="Arial, Helvetica, sans-serif">

  <!-- Title -->
  <text x="480" y="36" text-anchor="middle" font-size="20" font-weight="bold" fill="#1F4E79">PRIVACY CLASSIFICATIONS</text>
  <text x="480" y="56" text-anchor="middle" font-size="12" fill="#666">Transparent, auditable grading of every institutional deployment</text>

  <!-- ═══ Classification S ═══ -->
  <rect x="30" y="85" width="170" height="340" rx="10" fill="#1B5E20" opacity="0.07"/>
  <rect x="30" y="85" width="170" height="52" rx="10" fill="#1B5E20"/>
  <rect x="30" y="117" width="170" height="20" fill="#1B5E20"/>
  <text x="115" y="108" text-anchor="middle" font-size="28" font-weight="bold" fill="white">S</text>
  <text x="115" y="128" text-anchor="middle" font-size="10" fill="#A5D6A7">SOVEREIGN</text>

  <text x="115" y="162" text-anchor="middle" font-size="9" font-weight="bold" fill="#1B5E20">Key Isolation</text>
  <text x="115" y="176" text-anchor="middle" font-size="9" fill="#333">FPGA fabric / PUF</text>

  <text x="115" y="200" text-anchor="middle" font-size="9" font-weight="bold" fill="#1B5E20">Plaintext</text>
  <text x="115" y="214" text-anchor="middle" font-size="9" fill="#333">Never leaves enclave</text>

  <text x="115" y="238" text-anchor="middle" font-size="9" font-weight="bold" fill="#1B5E20">Ghost Quanta</text>
  <text x="115" y="252" text-anchor="middle" font-size="9" fill="#333">All operations default</text>

  <text x="115" y="276" text-anchor="middle" font-size="9" font-weight="bold" fill="#1B5E20">Revocation</text>
  <text x="115" y="290" text-anchor="middle" font-size="9" fill="#333">Absolute</text>

  <text x="115" y="314" text-anchor="middle" font-size="9" font-weight="bold" fill="#1B5E20">Hardware</text>
  <text x="115" y="328" text-anchor="middle" font-size="9" fill="#333">Dedicated FPGA / SE</text>

  <text x="115" y="356" text-anchor="middle" font-size="9" font-weight="bold" fill="#1B5E20">Score Baseline</text>
  <rect x="65" y="364" width="100" height="20" rx="4" fill="#1B5E20"/>
  <text x="115" y="378" text-anchor="middle" font-size="10" font-weight="bold" fill="white">90 / 100</text>

  <text x="115" y="410" text-anchor="middle" font-size="8" fill="#777">ExaForge FPGA</text>

  <!-- ═══ Classification A ═══ -->
  <rect x="218" y="85" width="170" height="340" rx="10" fill="#1565C0" opacity="0.07"/>
  <rect x="218" y="85" width="170" height="52" rx="10" fill="#1565C0"/>
  <rect x="218" y="117" width="170" height="20" fill="#1565C0"/>
  <text x="303" y="108" text-anchor="middle" font-size="28" font-weight="bold" fill="white">A</text>
  <text x="303" y="128" text-anchor="middle" font-size="10" fill="#90CAF9">ATTESTED</text>

  <text x="303" y="162" text-anchor="middle" font-size="9" font-weight="bold" fill="#1565C0">Key Isolation</text>
  <text x="303" y="176" text-anchor="middle" font-size="9" fill="#333">Hardware TEE</text>

  <text x="303" y="200" text-anchor="middle" font-size="9" font-weight="bold" fill="#1565C0">Plaintext</text>
  <text x="303" y="214" text-anchor="middle" font-size="9" fill="#333">Within TEE only</text>

  <text x="303" y="238" text-anchor="middle" font-size="9" font-weight="bold" fill="#1565C0">Ghost Quanta</text>
  <text x="303" y="252" text-anchor="middle" font-size="9" fill="#333">Most operations</text>

  <text x="303" y="276" text-anchor="middle" font-size="9" font-weight="bold" fill="#1565C0">Revocation</text>
  <text x="303" y="290" text-anchor="middle" font-size="9" fill="#333">Effective</text>

  <text x="303" y="314" text-anchor="middle" font-size="9" font-weight="bold" fill="#1565C0">Hardware</text>
  <text x="303" y="328" text-anchor="middle" font-size="9" fill="#333">TEE-capable CPU / DPU</text>

  <text x="303" y="356" text-anchor="middle" font-size="9" font-weight="bold" fill="#1565C0">Score Baseline</text>
  <rect x="253" y="364" width="100" height="20" rx="4" fill="#1565C0"/>
  <text x="303" y="378" text-anchor="middle" font-size="10" font-weight="bold" fill="white">75 / 100</text>

  <text x="303" y="410" text-anchor="middle" font-size="8" fill="#777">SGX · Nitro · BlueField</text>

  <!-- ═══ Classification B ═══ -->
  <rect x="406" y="85" width="170" height="340" rx="10" fill="#E65100" opacity="0.07"/>
  <rect x="406" y="85" width="170" height="52" rx="10" fill="#E65100"/>
  <rect x="406" y="117" width="170" height="20" fill="#E65100"/>
  <text x="491" y="108" text-anchor="middle" font-size="28" font-weight="bold" fill="white">B</text>
  <text x="491" y="128" text-anchor="middle" font-size="10" fill="#FFCC80">BOUNDED</text>

  <text x="491" y="162" text-anchor="middle" font-size="9" font-weight="bold" fill="#E65100">Key Isolation</text>
  <text x="491" y="176" text-anchor="middle" font-size="9" fill="#333">Software process</text>

  <text x="491" y="200" text-anchor="middle" font-size="9" font-weight="bold" fill="#E65100">Plaintext</text>
  <text x="491" y="214" text-anchor="middle" font-size="9" fill="#333">In API responses</text>

  <text x="491" y="238" text-anchor="middle" font-size="9" font-weight="bold" fill="#E65100">Ghost Quanta</text>
  <text x="491" y="252" text-anchor="middle" font-size="9" fill="#333">Where supported</text>

  <text x="491" y="276" text-anchor="middle" font-size="9" font-weight="bold" fill="#E65100">Revocation</text>
  <text x="491" y="290" text-anchor="middle" font-size="9" fill="#333">Operational</text>

  <text x="491" y="314" text-anchor="middle" font-size="9" font-weight="bold" fill="#E65100">Hardware</text>
  <text x="491" y="328" text-anchor="middle" font-size="9" fill="#333">Optional HSM / TPM</text>

  <text x="491" y="356" text-anchor="middle" font-size="9" font-weight="bold" fill="#E65100">Score Baseline</text>
  <rect x="441" y="364" width="100" height="20" rx="4" fill="#E65100"/>
  <text x="491" y="378" text-anchor="middle" font-size="10" font-weight="bold" fill="white">55 / 100</text>

  <text x="491" y="410" text-anchor="middle" font-size="8" fill="#777">HSM + QAT · TPM + GPU</text>

  <!-- ═══ Classification C ═══ -->
  <rect x="594" y="85" width="170" height="340" rx="10" fill="#757575" opacity="0.07"/>
  <rect x="594" y="85" width="170" height="52" rx="10" fill="#757575"/>
  <rect x="594" y="117" width="170" height="20" fill="#757575"/>
  <text x="679" y="108" text-anchor="middle" font-size="28" font-weight="bold" fill="white">C</text>
  <text x="679" y="128" text-anchor="middle" font-size="10" fill="#E0E0E0">COMPLIANT</text>

  <text x="679" y="162" text-anchor="middle" font-size="9" font-weight="bold" fill="#616161">Key Isolation</text>
  <text x="679" y="176" text-anchor="middle" font-size="9" fill="#333">Runtime only</text>

  <text x="679" y="200" text-anchor="middle" font-size="9" font-weight="bold" fill="#616161">Plaintext</text>
  <text x="679" y="214" text-anchor="middle" font-size="9" fill="#333">In application stack</text>

  <text x="679" y="238" text-anchor="middle" font-size="9" font-weight="bold" fill="#616161">Ghost Quanta</text>
  <text x="679" y="252" text-anchor="middle" font-size="9" fill="#333">Limited</text>

  <text x="679" y="276" text-anchor="middle" font-size="9" font-weight="bold" fill="#616161">Revocation</text>
  <text x="679" y="290" text-anchor="middle" font-size="9" fill="#333">Partial</text>

  <text x="679" y="314" text-anchor="middle" font-size="9" font-weight="bold" fill="#616161">Hardware</text>
  <text x="679" y="328" text-anchor="middle" font-size="9" fill="#333">None required</text>

  <text x="679" y="356" text-anchor="middle" font-size="9" font-weight="bold" fill="#616161">Score Baseline</text>
  <rect x="629" y="364" width="100" height="20" rx="4" fill="#757575"/>
  <text x="679" y="378" text-anchor="middle" font-size="10" font-weight="bold" fill="white">35 / 100</text>

  <text x="679" y="410" text-anchor="middle" font-size="8" fill="#777">Software only</text>

  <!-- ═══ Classification U ═══ -->
  <rect x="782" y="85" width="150" height="340" rx="10" fill="#D32F2F" opacity="0.05"/>
  <rect x="782" y="85" width="150" height="52" rx="10" fill="#B71C1C"/>
  <rect x="782" y="117" width="150" height="20" fill="#B71C1C"/>
  <text x="857" y="108" text-anchor="middle" font-size="28" font-weight="bold" fill="white">U</text>
  <text x="857" y="128" text-anchor="middle" font-size="10" fill="#EF9A9A">UNCLASSIFIED</text>

  <text x="857" y="162" text-anchor="middle" font-size="9" font-weight="bold" fill="#B71C1C">Key Isolation</text>
  <text x="857" y="176" text-anchor="middle" font-size="9" fill="#333">Not audited</text>

  <text x="857" y="200" text-anchor="middle" font-size="9" font-weight="bold" fill="#B71C1C">Plaintext</text>
  <text x="857" y="214" text-anchor="middle" font-size="9" fill="#333">Unknown</text>

  <text x="857" y="238" text-anchor="middle" font-size="9" font-weight="bold" fill="#B71C1C">Ghost Quanta</text>
  <text x="857" y="252" text-anchor="middle" font-size="9" fill="#333">Unknown</text>

  <text x="857" y="276" text-anchor="middle" font-size="9" font-weight="bold" fill="#B71C1C">Revocation</text>
  <text x="857" y="290" text-anchor="middle" font-size="9" fill="#333">Unknown</text>

  <text x="857" y="314" text-anchor="middle" font-size="9" font-weight="bold" fill="#B71C1C">Hardware</text>
  <text x="857" y="328" text-anchor="middle" font-size="9" fill="#333">Not verified</text>

  <text x="857" y="356" text-anchor="middle" font-size="9" font-weight="bold" fill="#B71C1C">Score Baseline</text>
  <rect x="807" y="364" width="100" height="20" rx="4" fill="#B71C1C"/>
  <text x="857" y="378" text-anchor="middle" font-size="10" font-weight="bold" fill="white">0 / 100</text>

  <text x="857" y="410" text-anchor="middle" font-size="8" fill="#777">Not audited</text>

  <!-- ═══ Upgrade arrow ═══ -->
  <line x1="857" y1="432" x2="115" y2="432" stroke="#1F4E79" stroke-width="2" marker-end="url(#a)" stroke-dasharray="8,4" transform="scale(-1,1) translate(-960,0)"/>
  <text x="480" y="452" text-anchor="middle" font-size="10" fill="#1F4E79" font-weight="bold">INSTITUTIONAL UPGRADE PATH  →</text>
  <text x="480" y="466" text-anchor="middle" font-size="9" fill="#666">Same Bonafide runtime, upgrade hardware incrementally</text>

  <!-- Footer -->
  <text x="480" y="500" text-anchor="middle" font-size="10" fill="#999">BONAFIDE™ SPECIFICATION V1.0 — Part 11</text>
  <text x="480" y="516" text-anchor="middle" font-size="9" fill="#BBB">Sly Technologies Inc. — bonafide.id</text>
</svg>
