<svg xmlns="http://www.w3.org/2000/svg" viewBox="0 0 960 700" font-family="Arial, Helvetica, sans-serif">
  <defs>
    <marker id="arr" viewBox="0 0 10 10" refX="9" refY="5" markerWidth="7" markerHeight="7" orient="auto-start-to-end">
      <path d="M 0 0 L 10 5 L 0 10 z" fill="#1F4E79"/>
    </marker>
    <filter id="shadow" x="-2%" y="-2%" width="104%" height="104%">
      <feDropShadow dx="1" dy="2" stdDeviation="2" flood-color="#000" flood-opacity="0.1"/>
    </filter>
  </defs>

  <!-- Title -->
  <text x="480" y="36" text-anchor="middle" font-size="20" font-weight="bold" fill="#1F4E79">VAULT HIERARCHY — DISTRIBUTED ARCHITECTURE</text>
  <text x="480" y="56" text-anchor="middle" font-size="12" fill="#666">Each institution holds only its own branch. No institution sees the whole tree.</text>

  <!-- ═══ BIO ROOT ═══ -->
  <rect x="370" y="80" width="220" height="60" rx="30" fill="#1F4E79" filter="url(#shadow)"/>
  <text x="480" y="106" text-anchor="middle" font-size="14" font-weight="bold" fill="white">BIO ROOT</text>
  <text x="480" y="122" text-anchor="middle" font-size="9" fill="#B0C4DE">Hash( bio ∥ root_secret ∥ passphrase )</text>

  <!-- Lines from Bio Root to Persona -->
  <line x1="480" y1="140" x2="480" y2="170" stroke="#1F4E79" stroke-width="2" marker-end="url(#arr)"/>

  <!-- ═══ PERSONA ═══ -->
  <rect x="390" y="175" width="180" height="40" rx="8" fill="#E8EAF6" stroke="#3949AB" stroke-width="2" filter="url(#shadow)"/>
  <text x="480" y="198" text-anchor="middle" font-size="12" font-weight="bold" fill="#3949AB">PERSONA 0 (Default)</text>

  <!-- Lines from Persona to Branches -->
  <line x1="390" y1="215" x2="160" y2="280" stroke="#1F4E79" stroke-width="1.5" marker-end="url(#arr)"/>
  <line x1="480" y1="215" x2="480" y2="280" stroke="#1F4E79" stroke-width="1.5" marker-end="url(#arr)"/>
  <line x1="570" y1="215" x2="800" y2="280" stroke="#1F4E79" stroke-width="1.5" marker-end="url(#arr)"/>

  <!-- ═══ BRANCH: BANK ═══ -->
  <rect x="40" y="285" width="240" height="360" rx="10" fill="#E8F5E9" stroke="#2E7D32" stroke-width="2" opacity="0.95" filter="url(#shadow)"/>
  <rect x="40" y="285" width="240" height="36" rx="10" fill="#2E7D32"/>
  <rect x="40" y="305" width="240" height="16" fill="#2E7D32"/>
  <text x="160" y="308" text-anchor="middle" font-size="12" font-weight="bold" fill="white">BRANCH: Chase Bank</text>
  <text x="160" y="340" text-anchor="middle" font-size="9" fill="#2E7D32" font-weight="bold">Hosted on Chase infrastructure</text>

  <!-- Channels -->
  <rect x="60" y="358" width="200" height="30" rx="5" fill="white" stroke="#66BB6A" stroke-width="1.5"/>
  <text x="160" y="378" text-anchor="middle" font-size="10" fill="#333">Channel: Transactions</text>

  <rect x="60" y="396" width="200" height="30" rx="5" fill="white" stroke="#66BB6A" stroke-width="1.5"/>
  <text x="160" y="416" text-anchor="middle" font-size="10" fill="#333">Channel: Statements</text>

  <rect x="60" y="434" width="200" height="30" rx="5" fill="white" stroke="#66BB6A" stroke-width="1.5"/>
  <text x="160" y="454" text-anchor="middle" font-size="10" fill="#333">Channel: Account Details</text>

  <!-- Quanta in transaction channel -->
  <g transform="translate(70, 478)">
    <rect x="0" y="0" width="44" height="24" rx="4" fill="#C8E6C9" stroke="#2E7D32" stroke-width="1"/>
    <text x="22" y="16" text-anchor="middle" font-size="8" fill="#2E7D32">Q₁</text>
  </g>
  <g transform="translate(120, 478)">
    <rect x="0" y="0" width="44" height="24" rx="4" fill="#C8E6C9" stroke="#2E7D32" stroke-width="1"/>
    <text x="22" y="16" text-anchor="middle" font-size="8" fill="#2E7D32">Q₂</text>
  </g>
  <g transform="translate(170, 478)">
    <rect x="0" y="0" width="44" height="24" rx="4" fill="#C8E6C9" stroke="#2E7D32" stroke-width="1"/>
    <text x="22" y="16" text-anchor="middle" font-size="8" fill="#2E7D32">Q₃</text>
  </g>

  <text x="160" y="526" text-anchor="middle" font-size="8" fill="#999">Each quantum independently encrypted</text>
  <text x="160" y="538" text-anchor="middle" font-size="8" fill="#999">with its own DEK</text>

  <!-- Security levels -->
  <rect x="60" y="552" width="200" height="30" rx="5" fill="#F1F8E9" stroke="#AED581" stroke-width="1"/>
  <text x="160" y="570" text-anchor="middle" font-size="9" fill="#558B2F">Security Levels 0–4 | Classification B+</text>

  <!-- Institutional key badge -->
  <rect x="60" y="594" width="200" height="28" rx="5" fill="#E8F5E9" stroke="#2E7D32" stroke-width="1.5" stroke-dasharray="4,3"/>
  <text x="160" y="612" text-anchor="middle" font-size="9" fill="#2E7D32">🔒 Institutional Key: Chase</text>

  <!-- ═══ BRANCH: HOSPITAL ═══ -->
  <rect x="360" y="285" width="240" height="360" rx="10" fill="#E3F2FD" stroke="#1565C0" stroke-width="2" opacity="0.95" filter="url(#shadow)"/>
  <rect x="360" y="285" width="240" height="36" rx="10" fill="#1565C0"/>
  <rect x="360" y="305" width="240" height="16" fill="#1565C0"/>
  <text x="480" y="308" text-anchor="middle" font-size="12" font-weight="bold" fill="white">BRANCH: Mt. Sinai Hospital</text>
  <text x="480" y="340" text-anchor="middle" font-size="9" fill="#1565C0" font-weight="bold">Hosted on hospital infrastructure</text>

  <!-- Channels -->
  <rect x="380" y="358" width="200" height="30" rx="5" fill="white" stroke="#64B5F6" stroke-width="1.5"/>
  <text x="480" y="378" text-anchor="middle" font-size="10" fill="#333">Channel: Diagnoses</text>

  <rect x="380" y="396" width="200" height="30" rx="5" fill="white" stroke="#64B5F6" stroke-width="1.5"/>
  <text x="480" y="416" text-anchor="middle" font-size="10" fill="#333">Channel: Prescriptions</text>

  <rect x="380" y="434" width="200" height="30" rx="5" fill="white" stroke="#64B5F6" stroke-width="1.5"/>
  <text x="480" y="454" text-anchor="middle" font-size="10" fill="#333">Channel: Lab Results</text>

  <!-- Quanta -->
  <g transform="translate(390, 478)">
    <rect x="0" y="0" width="44" height="24" rx="4" fill="#BBDEFB" stroke="#1565C0" stroke-width="1"/>
    <text x="22" y="16" text-anchor="middle" font-size="8" fill="#1565C0">Q₁</text>
  </g>
  <g transform="translate(440, 478)">
    <rect x="0" y="0" width="44" height="24" rx="4" fill="#BBDEFB" stroke="#1565C0" stroke-width="1"/>
    <text x="22" y="16" text-anchor="middle" font-size="8" fill="#1565C0">Q₂</text>
  </g>
  <g transform="translate(490, 478)">
    <rect x="0" y="0" width="44" height="24" rx="4" fill="#BBDEFB" stroke="#1565C0" stroke-width="1"/>
    <text x="22" y="16" text-anchor="middle" font-size="8" fill="#1565C0">Q₃</text>
  </g>

  <text x="480" y="526" text-anchor="middle" font-size="8" fill="#999">Each quantum independently encrypted</text>
  <text x="480" y="538" text-anchor="middle" font-size="8" fill="#999">with its own DEK</text>

  <rect x="380" y="552" width="200" height="30" rx="5" fill="#E3F2FD" stroke="#90CAF9" stroke-width="1"/>
  <text x="480" y="570" text-anchor="middle" font-size="9" fill="#1565C0">Security Levels 0–6 | Classification A+</text>

  <rect x="380" y="594" width="200" height="28" rx="5" fill="#E3F2FD" stroke="#1565C0" stroke-width="1.5" stroke-dasharray="4,3"/>
  <text x="480" y="612" text-anchor="middle" font-size="9" fill="#1565C0">🔒 Institutional Key: Mt. Sinai</text>

  <!-- ═══ BRANCH: EMPLOYER ═══ -->
  <rect x="680" y="285" width="240" height="360" rx="10" fill="#FFF3E0" stroke="#E65100" stroke-width="2" opacity="0.95" filter="url(#shadow)"/>
  <rect x="680" y="285" width="240" height="36" rx="10" fill="#E65100"/>
  <rect x="680" y="305" width="240" height="16" fill="#E65100"/>
  <text x="800" y="308" text-anchor="middle" font-size="12" font-weight="bold" fill="white">BRANCH: Employer</text>
  <text x="800" y="340" text-anchor="middle" font-size="9" fill="#E65100" font-weight="bold">Hosted on employer infrastructure</text>

  <!-- Channels -->
  <rect x="700" y="358" width="200" height="30" rx="5" fill="white" stroke="#FFB74D" stroke-width="1.5"/>
  <text x="800" y="378" text-anchor="middle" font-size="10" fill="#333">Channel: Payroll</text>

  <rect x="700" y="396" width="200" height="30" rx="5" fill="white" stroke="#FFB74D" stroke-width="1.5"/>
  <text x="800" y="416" text-anchor="middle" font-size="10" fill="#333">Channel: Benefits</text>

  <rect x="700" y="434" width="200" height="30" rx="5" fill="white" stroke="#FFB74D" stroke-width="1.5"/>
  <text x="800" y="454" text-anchor="middle" font-size="10" fill="#333">Channel: Documents</text>

  <!-- Quanta -->
  <g transform="translate(710, 478)">
    <rect x="0" y="0" width="44" height="24" rx="4" fill="#FFE0B2" stroke="#E65100" stroke-width="1"/>
    <text x="22" y="16" text-anchor="middle" font-size="8" fill="#E65100">Q₁</text>
  </g>
  <g transform="translate(760, 478)">
    <rect x="0" y="0" width="44" height="24" rx="4" fill="#FFE0B2" stroke="#E65100" stroke-width="1"/>
    <text x="22" y="16" text-anchor="middle" font-size="8" fill="#E65100">Q₂</text>
  </g>
  <g transform="translate(810, 478)">
    <rect x="0" y="0" width="44" height="24" rx="4" fill="#FFE0B2" stroke="#E65100" stroke-width="1"/>
    <text x="22" y="16" text-anchor="middle" font-size="8" fill="#E65100">Q₃</text>
  </g>

  <text x="800" y="526" text-anchor="middle" font-size="8" fill="#999">Each quantum independently encrypted</text>
  <text x="800" y="538" text-anchor="middle" font-size="8" fill="#999">with its own DEK</text>

  <rect x="700" y="552" width="200" height="30" rx="5" fill="#FFF3E0" stroke="#FFCC80" stroke-width="1"/>
  <text x="800" y="570" text-anchor="middle" font-size="9" fill="#E65100">Security Levels 0–4 | Classification B+</text>

  <rect x="700" y="594" width="200" height="28" rx="5" fill="#FFF3E0" stroke="#E65100" stroke-width="1.5" stroke-dasharray="4,3"/>
  <text x="800" y="612" text-anchor="middle" font-size="9" fill="#E65100">🔒 Institutional Key: Employer</text>

  <!-- ═══ ISOLATION CALLOUTS ═══ -->
  <!-- X between bank and hospital -->
  <text x="310" y="460" text-anchor="middle" font-size="22" fill="#D32F2F" font-weight="bold">✕</text>
  <text x="310" y="478" text-anchor="middle" font-size="8" fill="#D32F2F">Isolated</text>

  <!-- X between hospital and employer -->
  <text x="630" y="460" text-anchor="middle" font-size="22" fill="#D32F2F" font-weight="bold">✕</text>
  <text x="630" y="478" text-anchor="middle" font-size="8" fill="#D32F2F">Isolated</text>

  <!-- Footer -->
  <text x="480" y="670" text-anchor="middle" font-size="10" fill="#999">BONAFIDE™ SPECIFICATION V1.0 — Part 1, Section 4</text>
  <text x="480" y="686" text-anchor="middle" font-size="9" fill="#BBB">Sly Technologies Inc. — bonafide.id</text>
</svg>
